<?xml version="1.0" standalone="no"?><!DOCTYPE svg PUBLIC "-//W3C//DTD SVG 1.1//EN" "http://www.w3.org/Graphics/SVG/1.1/DTD/svg11.dtd"><svg t="1689576625457" class="icon" viewBox="0 0 1024 1024" version="1.1" xmlns="http://www.w3.org/2000/svg" p-id="2286" xmlns:xlink="http://www.w3.org/1999/xlink" width="200" height="200"><path d="M1023.984 512c0 282.781582-229.188419 512-511.984 512C229.234418 1024 0 794.781582 0 512 0 229.250418 229.234418 0 512 0 794.795581 0 1023.984 229.250418 1023.984 512z" fill="#FC6E51" p-id="2287"></path><path d="M895.984 426.687333c0 58.90708-57.311105 106.656333-128 106.656334-70.670896 0-127.984-47.749254-127.984-106.656334 0-58.937079 57.313104-106.686333 127.984-106.686333 70.688895 0 128 47.749254 128 106.686333zM454.016906 768c0 35.343448-38.203403 63.999-85.328667 63.999-47.123264 0-85.342667-28.655552-85.342666-63.999s38.219403-63.999 85.342666-63.999c47.125264 0 85.328667 28.655552 85.328667 63.999zM327.640881 469.344666c0 47.123264-47.751254 85.342667-106.656334 85.342667-58.921079 0-106.672333-38.217403-106.672333-85.342667 0-47.125264 47.749254-85.344666 106.672333-85.344666 58.90508 0 106.656333 38.217403 106.656334 85.344666zM640 192.001c-2.311964 0-4.561929 0.405994-6.623897 1.061983-0.999984 0.343995-100.750426 32.687489-208.498742 41.749348-103.890377 8.717864-173.235293-15.593756-213.12467-37.531414-36.641427-20.123686-55.859127-41.999344-60.861049-48.219246A506.580085 506.580085 0 0 0 121.720098 180.625178c10.187841 11.561819 31.717504 32.843487 66.812956 52.563178 64.294995 36.187435 135.65588 46.06128 194.372963 46.061281 16.295745 0 31.625506-0.749988 45.547288-1.93797 110.546273-9.281855 210.452712-41.187356 218.170592-43.717317 8.531867-2.781957 14.71777-10.781832 14.71777-20.249684 0.002-11.781816-9.559851-21.343667-21.341667-21.343666zM1013.672161 614.874393c-18.937704 3.84394-118.812144 23.561632-217.374603 31.843502-201.60885 16.937735-272.109748-24.249621-272.795738-24.655615a21.223668 21.223668 0 0 0-11.49982-3.375947c-11.781816 0-21.343667 9.531851-21.343667 21.311667 0 7.561882 3.937938 14.187778 9.843847 17.967719 2.155966 1.405978 22.593647 13.905783 69.810909 23.657631 38.3754 7.937876 82.906705 11.905814 133.157919 11.905814 30.123529 0 62.327026-1.437978 96.388494-4.281933 81.188731-6.811894 163.18945-21.189669 202.25084-28.625553a527.087764 527.087764 0 0 0 11.561819-45.747285zM687.063265 831.999c-4.187935 0-8.061874 1.217981-11.343823 3.281949-0.937985 0.593991-94.68852 58.719083-199.406884 67.500945-107.390322 8.999859-200.046874-5.78191-258.873955-19.749691-36.46943-8.687864-64.812987-18.123717-82.516711-24.689615a514.743957 514.743957 0 0 0 74.296839 66.59496c48.843237 11.50182 118.844143 23.251637 200.748863 23.251637 22.469649 0 45.845284-0.875986 69.906908-2.905955 115.344198-9.655849 214.37465-71.282886 218.532585-73.874846 5.999906-3.781941 9.967844-10.469836 9.967845-18.063718 0-11.783816-9.529851-21.345666-21.311667-21.345666z" fill="#E9573F" p-id="2288"></path></svg>